<svg width="77" height="86" viewBox="0 0 77 86" fill="none" xmlns="http://www.w3.org/2000/svg">
<path fill-rule="evenodd" clip-rule="evenodd" d="M7.50026 11.6287C6.62158 12.5074 6.62158 13.9216 6.62158 16.75V69.25C6.62158 72.0784 6.62158 73.4926 7.50026 74.3713C8.37894 75.25 9.79315 75.25 12.6216 75.25H64.1522C66.9806 75.25 68.3948 75.25 69.2735 74.3713C70.1522 73.4926 70.1522 72.0784 70.1522 69.25V16.75C70.1522 13.9216 70.1522 12.5074 69.2735 11.6287C68.3948 10.75 66.9806 10.75 64.1522 10.75H12.6216C9.79315 10.75 8.37894 10.75 7.50026 11.6287ZM51.093 31.25C51.6453 31.25 52.093 31.6977 52.093 32.25V60.9167C52.093 61.4689 51.6453 61.9167 51.093 61.9167C50.5407 61.9167 50.093 61.4689 50.093 60.9167V32.25C50.093 31.6977 50.5407 31.25 51.093 31.25ZM26.6808 39.4167C26.6808 38.8644 26.233 38.4167 25.6808 38.4167C25.1285 38.4167 24.6808 38.8644 24.6808 39.4167V60.9167C24.6808 61.4689 25.1285 61.9167 25.6808 61.9167C26.233 61.9167 26.6808 61.4689 26.6808 60.9167V39.4167ZM39.3869 46.5833C39.3869 46.031 38.9392 45.5833 38.3869 45.5833C37.8346 45.5833 37.3869 46.031 37.3869 46.5833V60.9167C37.3869 61.4689 37.8346 61.9167 38.3869 61.9167C38.9392 61.9167 39.3869 61.4689 39.3869 60.9167V46.5833Z" fill="#222222"/>
</svg>
