<svg width="84" height="84" viewBox="0 0 84 84" fill="none" xmlns="http://www.w3.org/2000/svg">
<circle cx="42" cy="31.5" r="14" fill="#33363F"/>
<circle cx="59.5" cy="31.5" r="10.5" fill="#33363F"/>
<circle cx="24.5" cy="31.5" r="10.5" fill="#33363F"/>
<path fill-rule="evenodd" clip-rule="evenodd" d="M61.4897 63H72.3952C72.9868 63 73.4432 62.494 73.3482 61.9101C72.7256 58.0846 69.8884 45.5 59.5002 45.5C56.3989 45.5 53.9706 46.6216 52.0732 48.297C57.3503 51.7207 60.0789 57.7158 61.4897 63Z" fill="#33363F"/>
<path fill-rule="evenodd" clip-rule="evenodd" d="M31.9267 48.297C30.0294 46.6216 27.6011 45.5 24.4998 45.5C14.1116 45.5 11.2743 58.0846 10.6517 61.9101C10.5567 62.494 11.0131 63 11.6047 63H22.5102C23.921 57.7158 26.6495 51.7207 31.9267 48.297Z" fill="#33363F"/>
<path d="M42 49C57.2013 49 59.1981 64.8454 59.4603 69.0082C59.4951 69.5594 59.0523 70 58.5 70H25.5C24.9477 70 24.5049 69.5594 24.5397 69.0082C24.8019 64.8454 26.7987 49 42 49Z" fill="#33363F"/>
</svg>
