<svg width="70" height="64" viewBox="0 0 70 64" fill="none" xmlns="http://www.w3.org/2000/svg">
<path fill-rule="evenodd" clip-rule="evenodd" d="M69.433 2.53737C70 3.74059 70 5.53914 70 8.5V28.5L44 28.5V5C44 3.61929 45.1193 2.5 46.5 2.5H69C69.1477 2.5 69.2924 2.51281 69.433 2.53737ZM42 28.5007L41.6541 63.3847L31.5 60L21 63.5L10.5 60L2.56311e-06 63.5L1.07481e-10 4.5C-1.19102e-07 2.61438 -1.19102e-07 1.67157 0.585787 1.08579C1.17157 0.5 2.11438 0.5 4 0.5L46.4933 0.500005C44.0111 0.50364 42 2.51696 42 5V28.5007ZM9.5 14.5C9.5 13.9477 9.94772 13.5 10.5 13.5H31.5C32.0523 13.5 32.5 13.9477 32.5 14.5C32.5 15.0523 32.0523 15.5 31.5 15.5H10.5C9.94772 15.5 9.5 15.0523 9.5 14.5ZM9.5 28.5C9.5 27.9477 9.94772 27.5 10.5 27.5H17.5C18.0523 27.5 18.5 27.9477 18.5 28.5C18.5 29.0523 18.0523 29.5 17.5 29.5H10.5C9.94772 29.5 9.5 29.0523 9.5 28.5ZM9.5 42.5C9.5 41.9477 9.94772 41.5 10.5 41.5H24.5C25.0523 41.5 25.5 41.9477 25.5 42.5C25.5 43.0523 25.0523 43.5 24.5 43.5H10.5C9.94772 43.5 9.5 43.0523 9.5 42.5Z" fill="#222222"/>
</svg>
